<svg width="30" height="30" viewBox="0 0 30 30" fill="none" xmlns="http://www.w3.org/2000/svg">
<path d="M26.33 5.2528L26.2899 5.22773L21.2161 2.72806L15.7397 10.0298L18.2593 13.3894C18.1839 14.6564 17.6466 15.8518 16.7491 16.7493C15.8516 17.6467 14.6562 18.184 13.3893 18.2594L10.0297 15.7399L2.728 21.2161L5.20687 26.2475L5.22773 26.29L5.25287 26.33C5.38515 26.5432 5.56979 26.7189 5.7892 26.8405C6.00862 26.9621 6.2555 27.0256 6.50636 27.0248H7.81558C10.3382 27.0248 12.8361 26.5279 15.1666 25.5626C17.4972 24.5972 19.6148 23.1823 21.3985 21.3985C23.1823 19.6148 24.5972 17.4972 25.5625 15.1666C26.5279 12.836 27.0247 10.3382 27.0247 7.81558V6.5063C27.0255 6.25545 26.9621 6.00856 26.8405 5.78914C26.7189 5.56973 26.5432 5.38509 26.33 5.2528ZM25.1497 7.81558C25.1497 17.3737 17.3736 25.1498 7.81558 25.1498H6.75621L5.09765 21.7828L10.0301 18.0835L12.7762 20.143H13.0887C14.959 20.1409 16.7522 19.397 18.0748 18.0744C19.3973 16.7519 20.1413 14.9587 20.1434 13.0883V12.7758L18.0838 10.0298L21.7827 5.09765L25.1497 6.7565V7.81558Z" fill="white"/>
</svg>
