<svg width="20" height="21" viewBox="0 0 20 21" fill="none" xmlns="http://www.w3.org/2000/svg">
<path fill-rule="evenodd" clip-rule="evenodd" d="M6.03188 0.833141C7.05825 0.785891 7.3855 0.775391 10 0.775391C12.6145 0.775391 12.9418 0.786766 13.9673 0.833141C14.9928 0.879516 15.6927 1.04314 16.3052 1.28027C16.9466 1.52264 17.5285 1.90152 18.0098 2.39152C18.4998 2.87189 18.8778 3.45289 19.1193 4.09514C19.3573 4.70764 19.52 5.40764 19.5672 6.43139C19.6145 7.45952 19.625 7.78677 19.625 10.4004C19.625 13.0149 19.6136 13.3421 19.5672 14.3685C19.5209 15.3923 19.3573 16.0923 19.1193 16.7048C18.8777 17.3471 18.4991 17.9291 18.0098 18.4101C17.5285 18.9001 16.9466 19.2781 16.3052 19.5196C15.6927 19.7576 14.9927 19.9204 13.969 19.9676C12.9417 20.0149 12.6145 20.0254 10 20.0254C7.3855 20.0254 7.05825 20.014 6.03188 19.9676C5.00813 19.9213 4.30813 19.7576 3.69563 19.5196C3.05331 19.2781 2.47134 18.8995 1.99025 18.4101C1.50058 17.9295 1.12165 17.3478 0.879875 16.7056C0.64275 16.0931 0.48 15.3931 0.43275 14.3694C0.3855 13.3413 0.375 13.014 0.375 10.4004C0.375 7.78589 0.386375 7.45864 0.43275 6.43314C0.479125 5.40764 0.64275 4.70764 0.879875 4.09514C1.12201 3.45296 1.50123 2.87129 1.99112 2.39064C2.47154 1.90108 3.05291 1.52215 3.69475 1.28027C4.30725 1.04314 5.00725 0.880391 6.031 0.833141H6.03188ZM13.8894 2.56564C12.8744 2.51927 12.5699 2.50964 10 2.50964C7.43012 2.50964 7.12562 2.51927 6.11062 2.56564C5.17175 2.60852 4.6625 2.76514 4.323 2.89727C3.87413 3.07227 3.553 3.27964 3.21613 3.61652C2.89679 3.92719 2.65103 4.30539 2.49688 4.72339C2.36475 5.06289 2.20812 5.57214 2.16525 6.51102C2.11888 7.52602 2.10925 7.83052 2.10925 10.4004C2.10925 12.9703 2.11888 13.2748 2.16525 14.2898C2.20812 15.2286 2.36475 15.7379 2.49688 16.0774C2.65087 16.4948 2.89675 16.8736 3.21613 17.1843C3.52675 17.5036 3.90563 17.7495 4.323 17.9035C4.6625 18.0356 5.17175 18.1923 6.11062 18.2351C7.12562 18.2815 7.42925 18.2911 10 18.2911C12.5708 18.2911 12.8744 18.2815 13.8894 18.2351C14.8282 18.1923 15.3375 18.0356 15.677 17.9035C16.1259 17.7285 16.447 17.5211 16.7839 17.1843C17.1033 16.8736 17.3491 16.4948 17.5031 16.0774C17.6353 15.7379 17.7919 15.2286 17.8348 14.2898C17.8811 13.2748 17.8907 12.9703 17.8907 10.4004C17.8907 7.83052 17.8811 7.52602 17.8348 6.51102C17.7919 5.57214 17.6353 5.06289 17.5031 4.72339C17.3281 4.27452 17.1208 3.95339 16.7839 3.61652C16.4732 3.2972 16.095 3.05145 15.677 2.89727C15.3375 2.76514 14.8282 2.60852 13.8894 2.56564ZM8.77063 13.3675C9.4572 13.6533 10.2217 13.6919 10.9336 13.4766C11.6454 13.2614 12.2605 12.8057 12.6737 12.1874C13.0868 11.569 13.2725 10.8264 13.199 10.0864C13.1255 9.34631 12.7974 8.65474 12.2706 8.12977C11.9348 7.79418 11.5288 7.53723 11.0818 7.37739C10.6348 7.21756 10.1579 7.15883 9.68543 7.20543C9.21299 7.25203 8.75676 7.4028 8.34958 7.64688C7.9424 7.89096 7.5944 8.22229 7.33064 8.61701C7.06688 9.01173 6.89392 9.46002 6.8242 9.92961C6.75449 10.3992 6.78976 10.8784 6.92747 11.3327C7.06519 11.787 7.30192 12.2052 7.62063 12.557C7.93934 12.9089 8.3321 13.1857 8.77063 13.3675ZM6.50175 6.90214C6.96115 6.44274 7.50653 6.07833 8.10676 5.82971C8.70699 5.58108 9.35032 5.45312 10 5.45312C10.6497 5.45312 11.293 5.58108 11.8932 5.82971C12.4935 6.07833 13.0389 6.44274 13.4983 6.90214C13.9576 7.36154 14.3221 7.90692 14.5707 8.50715C14.8193 9.10738 14.9473 9.75071 14.9473 10.4004C14.9473 11.0501 14.8193 11.6934 14.5707 12.2936C14.3221 12.8939 13.9576 13.4392 13.4983 13.8986C12.5705 14.8264 11.3121 15.3477 10 15.3477C8.6879 15.3477 7.42954 14.8264 6.50175 13.8986C5.57396 12.9708 5.05273 11.7125 5.05273 10.4004C5.05273 9.08829 5.57396 7.82993 6.50175 6.90214ZM16.0445 6.18989C16.1583 6.0825 16.2495 5.95336 16.3125 5.81012C16.3756 5.66687 16.4092 5.51244 16.4115 5.35595C16.4138 5.19947 16.3846 5.04412 16.3258 4.8991C16.267 4.75408 16.1796 4.62234 16.069 4.51167C15.9583 4.40101 15.8266 4.31368 15.6815 4.25484C15.5365 4.19601 15.3812 4.16687 15.2247 4.16915C15.0682 4.17143 14.9138 4.20509 14.7705 4.26813C14.6273 4.33116 14.4981 4.4223 14.3907 4.53614C14.1819 4.75754 14.0676 5.05162 14.072 5.35595C14.0764 5.66029 14.1993 5.95091 14.4145 6.16613C14.6297 6.38135 14.9204 6.50422 15.2247 6.50865C15.529 6.51309 15.8231 6.39874 16.0445 6.18989Z" fill="white"/>
</svg>
