<svg width="22" height="22" viewBox="0 0 22 22" fill="none" xmlns="http://www.w3.org/2000/svg">
<path d="M4.19425 17.8057C4.60014 18.2122 5.08234 18.5345 5.61316 18.754C6.14398 18.9735 6.71295 19.086 7.28737 19.085C7.86192 19.086 8.43101 18.9735 8.96197 18.754C9.49293 18.5344 9.97529 18.2122 10.3814 17.8057L12.8559 15.3304L11.6186 14.0931L9.14412 16.5685C8.65103 17.0594 7.98358 17.335 7.28781 17.335C6.59203 17.335 5.92459 17.0594 5.4315 16.5685C4.94019 16.0756 4.6643 15.4081 4.6643 14.7122C4.6643 14.0163 4.94019 13.3487 5.4315 12.8559L7.90687 10.3814L6.66962 9.14412L4.19425 11.6186C3.37508 12.4398 2.91504 13.5523 2.91504 14.7122C2.91504 15.8721 3.37508 16.9846 4.19425 17.8057ZM17.8057 10.3814C18.6245 9.56 19.0842 8.44755 19.0842 7.28781C19.0842 6.12807 18.6245 5.01562 17.8057 4.19425C16.9846 3.37508 15.8721 2.91504 14.7122 2.91504C13.5523 2.91504 12.4398 3.37508 11.6186 4.19425L9.14412 6.66962L10.3814 7.90687L12.8559 5.4315C13.349 4.94061 14.0164 4.66502 14.7122 4.66502C15.408 4.66502 16.0754 4.94061 16.5685 5.4315C17.0598 5.92436 17.3357 6.59189 17.3357 7.28781C17.3357 7.98373 17.0598 8.65126 16.5685 9.14412L14.0931 11.6186L15.3304 12.8559L17.8057 10.3814Z" fill="white"/>
<path d="M7.90597 15.3313L6.66785 14.094L14.094 6.66876L15.3312 7.90689L7.90597 15.3313Z" fill="white"/>
</svg>
