<svg width="18" height="18" viewBox="0 0 18 18" fill="none" xmlns="http://www.w3.org/2000/svg">
<path fill-rule="evenodd" clip-rule="evenodd" d="M6.75037 6.34788H10.0001V7.96663C10.4682 7.03562 11.6687 6.19913 13.4721 6.19913C16.9293 6.19913 17.75 8.05238 17.75 11.4526V17.75H14.25V12.227C14.25 10.2906 13.7819 9.19863 12.5901 9.19863C10.9373 9.19863 10.2504 10.3755 10.2504 12.2261V17.75H6.75037V6.34788ZM0.74875 17.6012H4.24875V6.19913H0.74875V17.6012ZM4.75012 2.48125C4.75026 2.77462 4.69207 3.06508 4.57896 3.33576C4.46585 3.60645 4.30007 3.85195 4.09125 4.058C3.6681 4.47855 3.09533 4.71395 2.49875 4.7125C1.90322 4.7121 1.33177 4.4773 0.908 4.05888C0.699935 3.85212 0.534713 3.60635 0.421801 3.33563C0.308889 3.06491 0.250507 2.77457 0.25 2.48125C0.25 1.88888 0.48625 1.32188 0.908875 0.903625C1.33227 0.484639 1.90396 0.249738 2.49963 0.25C3.09637 0.25 3.66862 0.485375 4.09125 0.903625C4.513 1.32188 4.75012 1.88888 4.75012 2.48125Z" fill="white"/>
</svg>
