<svg width="16" height="16" viewBox="0 0 16 16" fill="none" xmlns="http://www.w3.org/2000/svg">
<path d="M11.0467 14.6666C11.2237 14.6677 11.3992 14.6334 11.5629 14.5659C11.7266 14.4983 11.8752 14.3989 12 14.2733L13.8067 12.4666C13.9308 12.3417 14.0005 12.1728 14.0005 11.9966C14.0005 11.8205 13.9308 11.6515 13.8067 11.5266L11.14 8.85997C11.0151 8.7358 10.8461 8.66611 10.67 8.66611C10.4939 8.66611 10.3249 8.7358 10.2 8.85997L9.13333 9.91997C8.39484 9.72307 7.71088 9.36057 7.13333 8.85997C6.63408 8.28151 6.27176 7.59787 6.07333 6.85997L7.13333 5.7933C7.2575 5.6684 7.3272 5.49943 7.3272 5.32331C7.3272 5.14718 7.2575 4.97821 7.13333 4.85331L4.46667 2.18664C4.34176 2.06247 4.17279 1.99278 3.99667 1.99278C3.82054 1.99278 3.65158 2.06247 3.52667 2.18664L1.72667 3.99997C1.60109 4.1248 1.50163 4.27339 1.4341 4.43707C1.36657 4.60075 1.33231 4.77624 1.33334 4.95331C1.39382 7.51483 2.41738 9.95949 4.2 11.8C6.04048 13.5826 8.48514 14.6062 11.0467 14.6666ZM4 3.60664L5.72667 5.33331L4.86667 6.19331C4.78522 6.2696 4.72422 6.36513 4.68928 6.47113C4.65433 6.57712 4.64656 6.69019 4.66667 6.79997C4.91585 7.91355 5.44341 8.94574 6.2 9.79997C7.05357 10.5575 8.08602 11.0852 9.2 11.3333C9.30812 11.3559 9.42016 11.3513 9.52605 11.3199C9.63195 11.2885 9.72837 11.2312 9.80667 11.1533L10.6667 10.2733L12.3933 12L11.06 13.3333C8.84916 13.2764 6.73967 12.3941 5.14667 10.86C3.60861 9.26631 2.72374 7.15404 2.66667 4.93997L4 3.60664ZM13.3333 7.3333H14.6667C14.684 6.54064 14.5406 5.75268 14.2452 5.01691C13.9498 4.28114 13.5084 3.6128 12.9478 3.05217C12.3872 2.49154 11.7188 2.05022 10.9831 1.75481C10.2473 1.4594 9.45934 1.31602 8.66667 1.33331V2.66664C9.28527 2.64524 9.90166 2.75131 10.4775 2.97826C11.0534 3.20521 11.5764 3.54819 12.0141 3.98587C12.4518 4.42355 12.7948 4.94658 13.0217 5.52244C13.2487 6.09831 13.3547 6.7147 13.3333 7.3333Z" fill="#213065"/>
<path d="M8.66669 5.33333C10.0667 5.33333 10.6667 5.93333 10.6667 7.33333H12C12 5.18667 10.8134 4 8.66669 4V5.33333Z" fill="#213065"/>
</svg>
