<svg width="21" height="18" viewBox="0 0 21 18" fill="none" xmlns="http://www.w3.org/2000/svg">
<path d="M20.1876 2.81988C19.457 3.14363 18.6721 3.36238 17.847 3.46126C18.6984 2.95182 19.3353 2.15004 19.639 1.20551C18.8391 1.68062 17.9637 2.01505 17.0508 2.19426C16.4368 1.53876 15.6237 1.10429 14.7375 0.958296C13.8514 0.8123 12.9418 0.962949 12.1501 1.38685C11.3583 1.81076 10.7287 2.4842 10.3589 3.30262C9.9891 4.12105 9.89985 5.03866 10.105 5.91301C8.48424 5.83163 6.89868 5.41036 5.45126 4.67655C4.00383 3.94273 2.72687 2.91277 1.70326 1.65351C1.35326 2.25726 1.15201 2.95726 1.15201 3.70276C1.15162 4.37388 1.31689 5.03472 1.63315 5.62665C1.94942 6.21858 2.4069 6.72329 2.96501 7.09601C2.31775 7.07541 1.68477 6.90052 1.11876 6.58588V6.63838C1.1187 7.57965 1.44429 8.49196 2.0403 9.2205C2.6363 9.94904 3.46601 10.4489 4.38864 10.6354C3.7882 10.7979 3.15868 10.8218 2.54764 10.7054C2.80795 11.5153 3.31501 12.2235 3.99783 12.7309C4.68066 13.2384 5.50506 13.5195 6.35564 13.5351C4.91174 14.6686 3.12854 15.2835 1.29289 15.2808C0.967719 15.2808 0.642827 15.2619 0.319885 15.2239C2.18318 16.4219 4.35218 17.0577 6.56739 17.0553C14.0661 17.0553 18.1655 10.8445 18.1655 5.45801C18.1655 5.28301 18.1611 5.10626 18.1533 4.93126C18.9506 4.35461 19.6389 3.64054 20.1859 2.82251L20.1876 2.81988Z" fill="white"/>
</svg>
