<svg width="25" height="23" viewBox="0 0 25 23" fill="none" xmlns="http://www.w3.org/2000/svg">
<path d="M11.375 10.375L2.375 4.75V16H13.625V18.25H2.375C1.75625 18.25 1.22675 18.0299 0.7865 17.5896C0.3455 17.1486 0.125 16.6187 0.125 16V2.5C0.125 1.88125 0.3455 1.35137 0.7865 0.910375C1.22675 0.470125 1.75625 0.25 2.375 0.25H20.375C20.9937 0.25 21.5236 0.470125 21.9646 0.910375C22.4049 1.35137 22.625 1.88125 22.625 2.5V8.125H20.375V4.75L11.375 10.375ZM11.375 8.125L20.375 2.5H2.375L11.375 8.125ZM20.375 22.75C19.1375 22.75 18.0781 22.3094 17.1969 21.4281C16.3156 20.5469 15.875 19.4875 15.875 18.25V13.1875C15.875 12.4 16.1469 11.7344 16.6906 11.1906C17.2344 10.6469 17.9 10.375 18.6875 10.375C19.475 10.375 20.1406 10.6469 20.6844 11.1906C21.2281 11.7344 21.5 12.4 21.5 13.1875V18.25H19.25V13.1875C19.25 13.0375 19.1938 12.9062 19.0813 12.7937C18.9688 12.6812 18.8375 12.625 18.6875 12.625C18.5375 12.625 18.4062 12.6812 18.2937 12.7937C18.1812 12.9062 18.125 13.0375 18.125 13.1875V18.25C18.125 18.8687 18.3451 19.3986 18.7854 19.8396C19.2264 20.2799 19.7563 20.5 20.375 20.5C20.9937 20.5 21.5236 20.2799 21.9646 19.8396C22.4049 19.3986 22.625 18.8687 22.625 18.25V13.75H24.875V18.25C24.875 19.4875 24.4344 20.5469 23.5531 21.4281C22.6719 22.3094 21.6125 22.75 20.375 22.75ZM2.375 4.75V2.5V16V9.25V4.75Z" fill="#213065"/>
</svg>
